<svg xmlns="http://www.w3.org/2000/svg" viewBox="0 0 900 600">
  <rect fill="#de2910" width="900" height="600"/>
  <polygon fill="#ffde00" points="149.9,146.8 179.1,242.8 278.4,242.8 198.6,300.4 227.8,396.4 149.9,338.8 72,396.4 101.2,300.4 21.4,242.8 120.7,242.8"/>
  <polygon fill="#ffde00" points="329.4,129.1 338.4,156.2 367.7,156.2 344.1,173.4 353.1,200.5 329.4,183.3 305.8,200.5 314.8,173.4 291.2,156.2 320.5,156.2"/>
  <polygon fill="#ffde00" points="395.6,188.8 404.6,215.9 433.9,215.9 410.3,233.1 419.3,260.2 395.6,243 372,260.2 381,233.1 357.4,215.9 386.7,215.9"/>
  <polygon fill="#ffde00" points="395.6,271.2 404.6,298.3 433.9,298.3 410.3,315.5 419.3,342.6 395.6,325.4 372,342.6 381,315.5 357.4,298.3 386.7,298.3"/>
  <polygon fill="#ffde00" points="329.4,330.9 338.4,358 367.7,358 344.1,375.2 353.1,402.3 329.4,385.1 305.8,402.3 314.8,375.2 291.2,358 320.5,358"/>
</svg>
